<?xml version="1.0" standalone="no"?>
<!DOCTYPE svg PUBLIC "-//W3C//DTD SVG 20010904//EN"
 "http://www.w3.org/TR/2001/REC-SVG-20010904/DTD/svg10.dtd">
<svg version="1.0" xmlns="http://www.w3.org/2000/svg"
 width="1604.000000pt" height="232.000000pt" viewBox="0 0 1604.000000 232.000000"
 preserveAspectRatio="xMidYMid meet">

<g transform="translate(0.000000,232.000000) scale(0.100000,-0.100000)"
fill="#ffffff" stroke="none">
<path d="M8250 1400 l0 -920 220 0 220 0 0 375 c0 226 4 394 11 423 15 70 66
150 123 193 71 54 142 74 256 74 153 -1 228 -46 268 -163 14 -39 17 -119 22
-472 l5 -425 215 0 215 0 0 485 c0 519 -3 554 -52 657 -36 77 -102 145 -180
185 -127 66 -160 73 -343 73 -152 -1 -171 -3 -246 -28 -90 -30 -187 -88 -251
-150 l-43 -41 0 327 0 327 -220 0 -220 0 0 -920z"/>
<path d="M3985 1894 c-149 -22 -271 -70 -372 -145 -89 -66 -143 -166 -158
-291 l-7 -58 226 0 226 0 6 28 c33 156 114 203 339 197 137 -4 202 -23 244
-70 57 -66 35 -134 -56 -173 -58 -25 -188 -50 -298 -57 -326 -22 -526 -62
-641 -130 -59 -34 -120 -107 -141 -168 -13 -37 -18 -79 -17 -148 1 -86 4 -102
34 -167 57 -124 177 -213 350 -259 100 -26 368 -23 475 6 98 26 209 78 272
126 l48 37 10 -69 10 -68 238 -3 c230 -2 237 -2 237 17 0 11 -5 23 -11 27 -6
3 -20 25 -30 48 -17 38 -19 72 -19 466 0 447 -6 521 -44 606 -77 169 -334 267
-689 263 -78 -1 -182 -8 -232 -15z m531 -874 c-31 -120 -129 -216 -267 -261
-104 -34 -274 -35 -336 -2 -54 29 -85 74 -90 132 -9 97 52 136 253 165 60 8
161 23 224 32 63 9 140 24 170 33 l55 17 3 -28 c2 -15 -4 -55 -12 -88z"/>
<path d="M5998 1891 c-81 -26 -140 -64 -214 -136 l-64 -63 0 84 0 84 -215 0
-215 0 0 -690 0 -690 214 0 214 0 4 368 c3 354 4 369 27 432 63 177 185 254
404 255 l107 0 0 181 0 181 -37 7 c-69 11 -167 5 -225 -13z"/>
<path d="M6985 1894 c-434 -73 -675 -357 -652 -769 10 -183 63 -315 174 -435
109 -117 248 -195 423 -236 115 -28 394 -25 514 4 317 78 524 273 565 531 l8
51 -248 0 -249 0 0 -22 c0 -40 -46 -122 -89 -161 -74 -67 -119 -81 -251 -82
-103 0 -121 3 -170 26 -135 63 -210 196 -210 369 0 134 36 226 119 303 83 78
124 92 266 92 116 0 123 -1 188 -33 77 -38 116 -83 137 -157 l13 -45 238 0
239 0 -6 33 c-43 244 -187 413 -422 492 -158 53 -404 70 -587 39z"/>
<path d="M10705 1894 c-186 -28 -308 -81 -418 -184 -164 -153 -238 -351 -223
-595 12 -207 71 -343 205 -475 97 -97 179 -145 306 -181 105 -30 333 -32 435
-5 120 32 206 82 301 176 93 91 146 181 169 285 6 28 13 58 16 68 5 16 -4 17
-132 15 l-137 -3 -11 -46 c-52 -204 -289 -322 -534 -264 -88 21 -157 59 -216
119 -94 95 -136 206 -136 361 0 153 42 266 131 357 139 140 400 176 582 81 75
-40 124 -92 157 -166 l21 -47 129 0 c151 0 147 -5 105 107 -35 92 -75 151
-149 220 -75 71 -179 127 -283 154 -76 19 -255 32 -318 23z"/>
<path d="M12305 1886 c-176 -28 -296 -86 -411 -201 -66 -65 -89 -96 -122 -165
-58 -123 -72 -191 -72 -356 0 -226 50 -369 175 -503 122 -131 273 -202 476
-223 403 -42 726 133 833 452 52 157 58 331 17 493 -33 128 -75 201 -171 297
-121 123 -233 177 -420 205 -112 18 -196 18 -305 1z m336 -255 c194 -61 302
-210 316 -433 21 -331 -205 -549 -542 -525 -102 8 -164 27 -245 75 -127 76
-198 206 -207 382 -9 166 39 301 139 396 65 62 116 89 211 114 93 24 235 20
328 -9z"/>
<path d="M14145 1889 c-128 -21 -243 -84 -342 -186 l-63 -65 0 106 0 106 -125
0 -125 0 0 -685 0 -686 128 3 127 3 6 395 c3 234 10 407 16 425 38 110 108
207 186 258 84 55 143 70 255 64 54 -3 109 -9 125 -12 l27 -7 0 131 0 132 -35
15 c-37 15 -101 17 -180 3z"/>
<path d="M15125 1866 c-125 -29 -201 -68 -302 -154 l-63 -53 0 96 0 95 -125 0
-125 0 0 -925 0 -925 125 0 125 0 0 336 0 336 65 -60 c131 -119 284 -168 499
-159 66 3 130 7 141 10 11 3 34 8 50 12 109 27 255 114 334 201 110 120 160
253 168 443 11 247 -48 414 -199 563 -75 74 -201 144 -313 174 -83 22 -302 28
-380 10z m246 -230 c242 -43 379 -215 379 -475 0 -154 -39 -257 -131 -349 -98
-96 -230 -139 -398 -130 -199 12 -326 89 -405 248 -83 164 -64 392 42 537 105
142 301 207 513 169z"/>
</g>
</svg>
